<mxfile host="Electron" modified="2023-05-25T01:00:13.760Z" agent="Mozilla/5.0 (Windows NT 10.0; Win64; x64) AppleWebKit/537.36 (KHTML, like Gecko) draw.io/21.2.8 Chrome/112.0.5615.165 Electron/24.2.0 Safari/537.36" etag="Wg-_HekLilBF0wf6AQXd" version="21.2.8" type="device">
  <diagram name="Page-1" id="bOmw4tMDVAEK4hhUT2lN">
    <mxGraphModel dx="546" dy="583" grid="1" gridSize="10" guides="1" tooltips="1" connect="1" arrows="1" fold="1" page="1" pageScale="1" pageWidth="850" pageHeight="1100" math="0" shadow="0">
      <root>
        <mxCell id="0" />
        <mxCell id="1" parent="0" />
        <mxCell id="8tUdZbyP3wpjv0ij1ojQ-6" value="DynamoDB table" style="fillColor=none;strokeColor=#3335ba;dashed=1;verticalAlign=top;fontStyle=1;fontColor=#147EBA;whiteSpace=wrap;html=1;fontSize=17;" vertex="1" parent="1">
          <mxGeometry x="499" y="180" width="431" height="180" as="geometry" />
        </mxCell>
        <mxCell id="8tUdZbyP3wpjv0ij1ojQ-27" style="edgeStyle=orthogonalEdgeStyle;rounded=0;orthogonalLoop=1;jettySize=auto;html=1;" edge="1" parent="1" source="8tUdZbyP3wpjv0ij1ojQ-2" target="8tUdZbyP3wpjv0ij1ojQ-4">
          <mxGeometry relative="1" as="geometry" />
        </mxCell>
        <mxCell id="8tUdZbyP3wpjv0ij1ojQ-2" value="Client 1" style="sketch=0;outlineConnect=0;fontColor=#232F3E;gradientColor=none;fillColor=#232F3D;strokeColor=none;dashed=0;verticalLabelPosition=bottom;verticalAlign=top;align=center;html=1;fontSize=12;fontStyle=0;aspect=fixed;pointerEvents=1;shape=mxgraph.aws4.user;" vertex="1" parent="1">
          <mxGeometry x="160" y="202" width="78" height="78" as="geometry" />
        </mxCell>
        <mxCell id="8tUdZbyP3wpjv0ij1ojQ-26" style="edgeStyle=orthogonalEdgeStyle;rounded=0;orthogonalLoop=1;jettySize=auto;html=1;" edge="1" parent="1" source="8tUdZbyP3wpjv0ij1ojQ-3" target="8tUdZbyP3wpjv0ij1ojQ-4">
          <mxGeometry relative="1" as="geometry" />
        </mxCell>
        <mxCell id="8tUdZbyP3wpjv0ij1ojQ-3" value="Client 2" style="sketch=0;outlineConnect=0;fontColor=#232F3E;gradientColor=none;fillColor=#232F3D;strokeColor=none;dashed=0;verticalLabelPosition=bottom;verticalAlign=top;align=center;html=1;fontSize=12;fontStyle=0;aspect=fixed;pointerEvents=1;shape=mxgraph.aws4.user;" vertex="1" parent="1">
          <mxGeometry x="160" y="340" width="78" height="78" as="geometry" />
        </mxCell>
        <mxCell id="8tUdZbyP3wpjv0ij1ojQ-4" value="" style="sketch=0;outlineConnect=0;fontColor=#232F3E;gradientColor=none;fillColor=#2E27AD;strokeColor=none;dashed=0;verticalLabelPosition=bottom;verticalAlign=top;align=center;html=1;fontSize=12;fontStyle=0;aspect=fixed;pointerEvents=1;shape=mxgraph.aws4.attribute;" vertex="1" parent="1">
          <mxGeometry x="530" y="300" width="30" height="30" as="geometry" />
        </mxCell>
        <mxCell id="8tUdZbyP3wpjv0ij1ojQ-5" value="" style="sketch=0;points=[[0,0,0],[0.25,0,0],[0.5,0,0],[0.75,0,0],[1,0,0],[0,1,0],[0.25,1,0],[0.5,1,0],[0.75,1,0],[1,1,0],[0,0.25,0],[0,0.5,0],[0,0.75,0],[1,0.25,0],[1,0.5,0],[1,0.75,0]];outlineConnect=0;fontColor=#232F3E;gradientColor=#4D72F3;gradientDirection=north;fillColor=#3334B9;strokeColor=#ffffff;dashed=0;verticalLabelPosition=bottom;verticalAlign=top;align=center;html=1;fontSize=12;fontStyle=0;aspect=fixed;shape=mxgraph.aws4.resourceIcon;resIcon=mxgraph.aws4.dynamodb;" vertex="1" parent="1">
          <mxGeometry x="499" y="180" width="40" height="40" as="geometry" />
        </mxCell>
        <mxCell id="8tUdZbyP3wpjv0ij1ojQ-14" value="UserID" style="rounded=0;whiteSpace=wrap;html=1;fillColor=#d5e8d4;strokeColor=#82b366;" vertex="1" parent="1">
          <mxGeometry x="568" y="260" width="100" height="30" as="geometry" />
        </mxCell>
        <mxCell id="8tUdZbyP3wpjv0ij1ojQ-15" value="FirstName" style="rounded=0;whiteSpace=wrap;html=1;fillColor=#f8cecc;strokeColor=#b85450;" vertex="1" parent="1">
          <mxGeometry x="678" y="260" width="100" height="30" as="geometry" />
        </mxCell>
        <mxCell id="8tUdZbyP3wpjv0ij1ojQ-16" value="Version" style="rounded=0;whiteSpace=wrap;html=1;fillColor=#f8cecc;strokeColor=#b85450;" vertex="1" parent="1">
          <mxGeometry x="788" y="260" width="100" height="30" as="geometry" />
        </mxCell>
        <mxCell id="8tUdZbyP3wpjv0ij1ojQ-17" value="a8f5f167f44-..." style="rounded=0;whiteSpace=wrap;html=1;fillColor=#d5e8d4;strokeColor=#82b366;" vertex="1" parent="1">
          <mxGeometry x="568" y="300" width="100" height="30" as="geometry" />
        </mxCell>
        <mxCell id="8tUdZbyP3wpjv0ij1ojQ-18" value="Jefté" style="rounded=0;whiteSpace=wrap;html=1;fillColor=#f8cecc;strokeColor=#b85450;" vertex="1" parent="1">
          <mxGeometry x="678" y="300" width="100" height="30" as="geometry" />
        </mxCell>
        <mxCell id="8tUdZbyP3wpjv0ij1ojQ-19" value="1" style="rounded=0;whiteSpace=wrap;html=1;fillColor=#f8cecc;strokeColor=#b85450;" vertex="1" parent="1">
          <mxGeometry x="788" y="300" width="100" height="30" as="geometry" />
        </mxCell>
        <mxCell id="8tUdZbyP3wpjv0ij1ojQ-20" value="Brenno" style="rounded=0;whiteSpace=wrap;html=1;fillColor=#f8cecc;strokeColor=#b85450;" vertex="1" parent="1">
          <mxGeometry x="688" y="310" width="100" height="30" as="geometry" />
        </mxCell>
        <mxCell id="8tUdZbyP3wpjv0ij1ojQ-21" value="2" style="rounded=0;whiteSpace=wrap;html=1;fillColor=#f8cecc;strokeColor=#b85450;" vertex="1" parent="1">
          <mxGeometry x="798" y="310" width="100" height="30" as="geometry" />
        </mxCell>
        <mxCell id="8tUdZbyP3wpjv0ij1ojQ-28" value="Update: FirstName = Jefté only if version = 1" style="text;html=1;align=center;verticalAlign=middle;resizable=0;points=[];autosize=1;strokeColor=none;fillColor=none;fontSize=12;fontColor=#FF3333;fontStyle=1" vertex="1" parent="1">
          <mxGeometry x="221" y="213" width="280" height="30" as="geometry" />
        </mxCell>
        <mxCell id="8tUdZbyP3wpjv0ij1ojQ-29" value="Update: FirstName = Brenno only if version = 1" style="text;html=1;align=center;verticalAlign=middle;resizable=0;points=[];autosize=1;strokeColor=none;fillColor=none;fontSize=12;fontStyle=1;fontColor=#0000FF;" vertex="1" parent="1">
          <mxGeometry x="230" y="352" width="290" height="30" as="geometry" />
        </mxCell>
        <mxCell id="8tUdZbyP3wpjv0ij1ojQ-30" value="" style="points=[[0.145,0.145,0],[0.5,0,0],[0.855,0.145,0],[1,0.5,0],[0.855,0.855,0],[0.5,1,0],[0.145,0.855,0],[0,0.5,0]];shape=mxgraph.bpmn.event;html=1;verticalLabelPosition=bottom;labelBackgroundColor=#ffffff;verticalAlign=top;align=center;perimeter=ellipsePerimeter;outlineConnect=0;aspect=fixed;outline=end;symbol=cancel;fillColor=#f8cecc;strokeColor=#b85450;" vertex="1" parent="1">
          <mxGeometry x="527" y="229" width="30" height="30" as="geometry" />
        </mxCell>
      </root>
    </mxGraphModel>
  </diagram>
</mxfile>
